<?xml version="1.0" standalone="no"?>
<!DOCTYPE svg PUBLIC "-//W3C//DTD SVG 20010904//EN"
 "http://www.w3.org/TR/2001/REC-SVG-20010904/DTD/svg10.dtd">
<svg version="1.0" xmlns="http://www.w3.org/2000/svg"
 width="934.000000pt" height="934.000000pt" viewBox="0 0 934.000000 934.000000"
 preserveAspectRatio="xMidYMid meet">
<metadata>
Created by potrace 1.14, written by Peter Selinger 2001-2017
</metadata>
<g transform="translate(0.000000,934.000000) scale(0.100000,-0.100000)"
fill="#000000" stroke="none">
<path d="M4555 9240 c-11 -5 -34 -9 -52 -9 -39 -1 -234 -50 -247 -62 -6 -5
-16 -9 -23 -9 -8 0 -51 -17 -96 -37 -244 -111 -521 -335 -722 -584 -84 -104
-275 -377 -275 -394 0 -2 -19 -36 -43 -77 -24 -40 -69 -125 -101 -188 -33 -63
-59 -116 -60 -117 -1 -1 -82 3 -180 8 -262 14 -617 -8 -811 -50 -22 -5 -64
-14 -94 -20 -275 -56 -573 -197 -786 -371 -218 -179 -379 -449 -439 -743 -21
-100 -23 -103 -59 -118 -47 -19 -126 -72 -173 -116 -133 -123 -199 -279 -199
-468 1 -177 59 -318 186 -444 116 -116 246 -176 405 -188 l81 -6 21 -41 c41
-80 99 -182 137 -241 21 -33 43 -69 49 -80 6 -11 33 -53 60 -92 47 -70 48 -73
32 -95 -136 -190 -295 -480 -397 -725 -5 -13 -13 -33 -19 -45 -15 -36 -72
-210 -81 -248 -4 -19 -14 -62 -22 -95 -37 -146 -49 -276 -44 -465 6 -248 34
-376 123 -569 100 -217 320 -457 524 -573 82 -46 224 -115 280 -136 30 -11 82
-30 115 -43 33 -12 76 -25 95 -30 19 -4 53 -12 75 -18 286 -68 638 -99 937
-80 99 6 181 9 183 7 2 -2 33 -60 68 -128 99 -194 242 -431 311 -517 8 -10 50
-63 94 -118 275 -345 625 -594 952 -676 153 -39 416 -53 527 -29 26 6 71 15
98 21 28 6 84 22 125 35 41 13 83 24 94 24 11 0 47 -17 80 -39 53 -33 104 -54
232 -92 82 -24 289 10 384 64 19 11 48 27 64 35 52 27 169 156 207 228 60 114
74 174 74 304 0 125 -21 215 -72 306 l-25 44 41 66 c23 36 41 67 41 69 0 3 15
28 34 57 29 46 169 313 178 340 2 6 67 6 193 -1 200 -12 470 1 701 33 122 17
335 69 424 103 36 13 85 31 110 40 66 22 264 128 350 187 100 68 253 221 327
326 227 324 292 702 203 1169 -23 121 -79 302 -143 461 -49 122 -171 369 -208
422 -11 14 -19 29 -19 32 0 7 -139 226 -156 247 -21 24 -18 34 35 113 206 304
405 727 461 976 33 147 43 198 55 295 49 369 -29 720 -223 999 -31 45 -109
134 -174 198 l-118 117 0 98 c0 278 -174 514 -445 606 -81 27 -283 29 -366 4
-150 -47 -262 -129 -353 -258 l-46 -67 -263 -2 c-144 -1 -279 -2 -300 -3 l-38
-2 -70 135 c-39 74 -84 156 -100 183 -16 26 -29 50 -29 53 0 3 -39 65 -87 137
-367 553 -804 882 -1273 958 -88 14 -310 21 -335 9z m360 -396 c311 -80 595
-302 868 -677 42 -59 77 -109 77 -112 0 -2 16 -29 35 -59 19 -30 35 -57 35
-60 0 -3 15 -29 34 -58 51 -81 89 -160 79 -168 -4 -4 -44 -12 -88 -19 -75 -11
-163 -29 -245 -51 -19 -5 -69 -17 -110 -26 -191 -42 -509 -138 -710 -214 -47
-17 -110 -41 -140 -52 l-55 -20 -85 30 c-47 17 -130 47 -185 67 -115 42 -156
56 -240 80 -33 9 -87 25 -120 34 -161 48 -206 60 -275 75 -76 17 -102 23 -220
50 -36 9 -99 20 -140 27 -41 6 -81 13 -88 15 -34 10 224 431 374 609 70 83
226 240 286 288 292 232 616 318 913 241z m2809 -1119 c53 -22 114 -81 137
-133 43 -94 20 -222 -52 -291 -104 -99 -254 -102 -356 -8 -59 54 -83 110 -83
192 0 100 51 184 140 231 54 28 157 32 214 9z m-4944 -341 c0 -9 -6 -30 -14
-47 -42 -92 -154 -462 -201 -662 -14 -60 -34 -146 -45 -190 -21 -90 -22 -94
-55 -293 -14 -78 -29 -151 -35 -162 -5 -10 -79 -77 -163 -147 -259 -216 -646
-600 -797 -790 -23 -29 -45 -53 -48 -53 -9 1 -68 95 -157 255 -16 28 -33 58
-39 67 -8 14 -3 24 30 52 102 87 180 234 204 383 27 168 -25 354 -139 496 -67
82 -176 159 -274 193 -27 9 -51 22 -53 29 -12 31 76 246 139 340 65 96 188
212 302 286 62 40 221 114 305 142 70 23 105 33 213 56 23 6 53 13 67 16 95
24 326 43 533 44 202 1 227 -1 227 -15z m4218 -9 c26 -186 168 -374 346 -460
114 -54 126 -57 261 -62 170 -7 301 37 432 143 23 19 46 34 51 34 13 0 123
-118 159 -170 87 -130 133 -250 162 -431 20 -122 11 -264 -28 -467 -17 -87
-92 -312 -135 -407 -18 -38 -39 -86 -46 -105 -16 -38 -148 -275 -199 -357 -18
-28 -38 -49 -45 -47 -6 3 -26 24 -43 47 -74 96 -276 311 -452 480 -172 165
-229 216 -365 330 -72 60 -135 116 -141 125 -6 9 -19 67 -29 127 -27 171 -37
227 -47 265 -8 33 -31 134 -65 280 -35 153 -135 484 -185 609 -16 40 -26 78
-23 82 3 5 91 8 197 7 183 -3 192 -4 195 -23z m-3731 -34 c26 -6 80 -15 118
-21 101 -16 438 -97 550 -131 33 -11 74 -23 90 -28 17 -5 56 -17 88 -26 31
-10 57 -21 57 -24 0 -4 -48 -30 -107 -59 -121 -58 -331 -168 -442 -231 -40
-22 -74 -41 -76 -41 -1 0 -60 -35 -131 -78 -71 -43 -140 -85 -153 -93 -13 -8
-103 -66 -200 -130 -97 -64 -177 -113 -179 -109 -3 8 40 196 79 350 19 71 62
213 116 380 23 73 36 107 54 142 5 10 9 22 9 27 0 5 7 25 15 45 17 40 29 43
112 27z m2980 -76 c60 -147 168 -499 209 -675 14 -63 30 -128 35 -144 10 -31
12 -76 4 -76 -3 0 -58 35 -123 78 -198 133 -427 273 -607 373 -44 24 -98 54
-120 66 -22 12 -129 66 -237 120 -108 54 -197 101 -198 104 0 5 135 49 245 79
17 5 62 17 100 28 39 11 111 29 160 40 50 11 119 28 155 36 36 8 97 20 135 26
39 7 86 16 105 20 19 5 51 8 69 7 34 -2 36 -5 68 -82z m-1457 -380 c47 -20 99
-42 115 -49 240 -109 463 -222 668 -337 38 -22 70 -39 72 -39 7 0 311 -187
430 -265 125 -81 412 -281 431 -299 6 -6 27 -22 47 -36 20 -14 41 -34 46 -45
9 -18 26 -169 51 -450 32 -350 32 -947 0 -1285 -29 -311 -45 -449 -54 -462
-24 -30 -340 -256 -534 -382 -372 -241 -925 -537 -1274 -680 -99 -41 -99 -41
-141 -22 -18 8 -90 40 -162 71 -118 52 -536 256 -560 274 -5 5 -44 26 -85 48
-106 57 -130 71 -265 153 -66 40 -129 78 -140 84 -71 41 -451 299 -505 343 -8
7 -44 34 -80 60 l-65 48 -12 85 c-39 269 -58 606 -58 1020 0 414 19 751 58
1020 l12 85 90 68 c174 132 479 338 674 454 149 90 184 109 391 223 117 63
452 227 583 284 20 9 52 23 71 31 98 43 92 43 196 0z m-3840 -770 c86 -43 133
-122 133 -225 0 -137 -91 -240 -226 -256 -101 -12 -193 36 -252 130 -26 44
-30 58 -29 125 0 68 3 81 32 125 82 127 213 165 342 101z m6260 -820 c198
-192 520 -548 520 -575 0 -4 -8 -15 -18 -26 -9 -10 -42 -50 -72 -89 -30 -38
-91 -108 -135 -155 -44 -47 -114 -121 -155 -165 -102 -109 -313 -304 -325
-302 -5 1 -8 7 -7 12 8 23 24 359 29 620 5 258 -4 558 -25 768 -4 43 -6 80 -3
82 5 6 60 -43 191 -170z m-4847 98 c-2 -38 -8 -121 -13 -185 -6 -64 -10 -284
-10 -488 0 -204 4 -424 10 -488 16 -192 17 -252 5 -252 -15 0 -333 314 -456
450 -133 146 -239 275 -239 289 0 20 105 147 259 316 100 109 425 425 436 425
7 0 10 -25 8 -67z m-887 -1050 c184 -226 563 -600 826 -815 59 -49 114 -98
123 -111 8 -13 24 -77 35 -143 30 -177 40 -235 50 -274 5 -19 16 -64 24 -100
50 -220 91 -376 126 -480 10 -30 35 -109 56 -175 21 -66 43 -131 51 -145 20
-39 16 -49 -23 -56 -51 -9 -461 2 -564 16 -107 14 -229 39 -355 71 -162 41
-368 144 -495 248 -194 157 -301 341 -349 597 -28 154 -4 442 53 617 13 40 29
92 36 117 11 39 92 232 137 328 39 83 205 361 215 362 4 0 28 -26 54 -57z
m6521 10 c27 -41 116 -196 173 -298 9 -16 22 -46 30 -65 8 -19 28 -67 46 -107
51 -110 120 -327 142 -443 47 -245 43 -388 -15 -590 -78 -270 -267 -480 -557
-620 -175 -84 -388 -142 -636 -172 -104 -13 -563 -19 -574 -7 -3 3 6 35 20 70
15 35 37 100 51 144 53 173 65 212 79 260 22 74 58 215 88 345 15 63 31 131
36 150 5 19 11 51 14 70 6 47 45 280 51 307 3 12 65 71 147 139 79 65 179 152
223 193 213 203 263 251 319 311 34 36 91 96 127 135 99 105 117 126 157 178
20 26 39 47 42 47 4 0 20 -21 37 -47z m-4917 -1404 c129 -85 494 -309 505
-309 2 0 50 -26 107 -58 57 -33 187 -101 290 -153 104 -52 188 -97 188 -100 0
-3 -35 -16 -77 -28 -43 -13 -89 -27 -103 -31 -14 -5 -52 -16 -85 -25 -33 -9
-71 -21 -85 -25 -14 -4 -45 -13 -70 -18 -100 -24 -278 -64 -320 -73 -53 -11
-229 -39 -245 -39 -11 0 -25 28 -56 108 -5 12 -13 32 -19 45 -14 34 -78 236
-123 387 -5 19 -13 46 -18 60 -4 14 -15 54 -23 90 -8 36 -27 113 -41 171 -32
134 -32 135 3 112 15 -10 92 -61 172 -114z m3420 101 c0 -11 -8 -53 -19 -93
-10 -39 -26 -106 -35 -147 -16 -70 -30 -118 -116 -400 -35 -112 -106 -299
-120 -314 -9 -9 -183 15 -305 44 -44 10 -132 30 -195 45 -104 23 -153 36 -345
94 -33 10 -81 24 -107 32 -26 7 -45 16 -42 20 2 4 93 52 201 106 191 96 365
191 543 297 106 62 467 292 499 317 30 24 41 24 41 -1z m-1763 -951 c59 -24
70 -28 143 -54 41 -15 93 -34 115 -42 52 -19 106 -37 180 -58 33 -9 71 -21 85
-25 68 -23 276 -80 365 -100 110 -24 209 -46 270 -60 22 -5 60 -12 85 -15 78
-10 78 -12 19 -121 -67 -127 -136 -234 -149 -234 -6 0 -43 9 -82 20 -305 84
-647 -99 -753 -403 -32 -93 -48 -221 -35 -286 16 -85 14 -100 -17 -112 -51
-20 -187 -39 -273 -39 -225 0 -461 90 -672 256 -227 178 -502 534 -667 861
l-21 42 22 7 c12 4 47 10 78 14 87 11 355 73 530 122 58 17 119 33 135 38 17
4 50 14 75 23 25 8 72 22 105 31 33 9 69 21 80 26 11 4 54 20 95 35 41 15 84
30 95 35 136 55 146 57 192 39z m1000 -1085 c93 -54 128 -115 128 -224 0 -64
-4 -82 -27 -121 -52 -89 -122 -129 -223 -129 -150 0 -255 106 -255 257 1 153
118 261 270 248 43 -4 79 -14 107 -31z"/>
<path d="M4490 6284 c-117 -14 -320 -65 -372 -94 -10 -6 -22 -10 -28 -10 -11
0 -162 -73 -225 -109 -211 -121 -435 -345 -556 -556 -36 -63 -109 -214 -109
-225 0 -6 -4 -18 -10 -28 -12 -22 -45 -124 -58 -182 -6 -25 -17 -70 -24 -100
-9 -37 -13 -130 -13 -280 0 -150 4 -243 13 -280 7 -30 18 -75 24 -100 13 -58
46 -160 58 -182 6 -10 10 -23 10 -29 0 -31 165 -329 199 -359 3 -3 24 -27 45
-55 60 -77 192 -203 291 -278 75 -56 293 -175 380 -208 199 -74 323 -94 570
-94 222 0 277 8 470 65 87 26 83 24 237 99 303 147 562 406 709 709 75 154 73
150 99 237 57 193 65 248 65 470 0 247 -20 371 -94 570 -33 87 -152 305 -208
380 -75 99 -201 231 -278 291 -27 21 -52 42 -55 45 -30 34 -328 199 -359 199
-6 0 -19 4 -29 10 -25 13 -129 46 -192 60 -30 7 -71 17 -90 22 -36 10 -409 19
-470 12z m1374 -774 c37 -47 123 -187 153 -250 145 -308 161 -642 47 -1000
-18 -58 -41 -94 -31 -50 49 216 58 277 64 415 7 189 -10 324 -65 501 -29 92
-122 270 -209 399 -71 106 -72 108 -26 59 26 -27 56 -61 67 -74z m-43 -103
c50 -73 127 -219 159 -302 16 -41 48 -162 60 -222 25 -141 11 -405 -31 -558
-6 -22 -13 -52 -16 -68 -3 -15 -9 -30 -14 -33 -5 -3 -9 -16 -9 -30 0 -16 -4
-23 -11 -18 -6 3 -8 16 -4 28 10 31 23 90 41 186 20 106 24 399 5 480 -6 30
-17 75 -23 100 -37 156 -117 332 -223 486 -36 53 -65 100 -65 105 0 5 -4 9
-10 9 -5 0 -10 6 -10 13 1 19 84 -78 151 -176z m-111 19 c41 -47 119 -166 155
-236 70 -139 112 -341 101 -489 -9 -121 -53 -318 -78 -346 -12 -14 -10 7 14
118 16 77 21 138 22 247 0 193 -24 305 -105 478 -39 84 -144 254 -160 260 -5
2 -9 8 -9 14 0 13 26 -7 60 -46z m-9 -143 c82 -121 139 -253 165 -388 17 -83
18 -282 3 -357 -18 -92 -49 -199 -61 -213 -4 -5 -8 -17 -8 -28 0 -10 -4 -16
-10 -12 -5 3 -6 15 -1 28 5 12 14 49 21 82 6 33 16 79 21 102 15 67 11 309 -6
391 -33 158 -95 303 -187 440 -27 39 -52 80 -55 90 -11 29 66 -59 118 -135z
m-3 -140 c17 -32 43 -94 57 -138 23 -69 27 -97 28 -205 0 -128 -17 -228 -49
-277 -8 -12 -14 -30 -14 -39 0 -10 -3 -15 -6 -12 -3 4 2 44 12 90 12 56 18
127 19 218 0 114 -4 146 -23 210 -27 84 -100 231 -138 275 -13 15 -24 33 -24
39 1 21 107 -104 138 -161z m-2261 125 c-3 -8 -6 -5 -6 6 -1 11 2 17 5 13 3
-3 4 -12 1 -19z m1365 -12 c225 -59 381 -215 433 -431 71 -297 -125 -607 -430
-680 -219 -52 -468 46 -594 234 -106 158 -128 334 -66 516 51 150 206 300 355
344 19 6 49 15 65 20 45 14 177 13 237 -3z m746 -59 c85 -111 134 -231 150
-367 13 -106 -7 -270 -39 -332 -5 -10 -9 -25 -9 -33 0 -8 -5 -15 -11 -15 -7 0
-9 11 -6 28 26 141 37 215 37 262 0 63 -20 172 -45 245 -19 57 -87 185 -122
231 -26 35 -32 64 -9 45 8 -7 32 -36 54 -64z m-2127 2 c-5 -13 -14 -51 -21
-84 -6 -33 -16 -78 -20 -100 -16 -73 -22 -297 -11 -400 11 -101 34 -208 66
-300 17 -50 99 -223 132 -280 33 -56 126 -190 137 -197 6 -4 8 -10 4 -13 -9
-9 -93 91 -162 195 -105 158 -163 297 -207 500 -25 114 -13 430 21 540 4 14
13 45 20 70 6 25 16 53 21 62 5 10 9 25 9 35 0 12 3 14 10 7 7 -7 8 -19 1 -35z
m-71 2 c0 -11 -4 -22 -9 -25 -5 -3 -11 -20 -14 -38 -2 -18 -12 -69 -20 -113
-64 -318 -30 -606 104 -895 43 -91 72 -139 161 -268 64 -91 73 -110 31 -64
-63 68 -85 95 -137 172 -68 102 -126 219 -164 335 -49 148 -57 205 -57 400 1
176 6 222 46 370 6 22 13 50 16 63 3 12 9 25 14 28 5 3 9 16 9 30 0 13 5 24
10 24 6 0 10 -9 10 -19z m2121 -59 c80 -104 128 -252 115 -356 -9 -69 -37
-166 -47 -166 -5 0 -9 -7 -9 -17 0 -9 -2 -14 -5 -11 -3 2 2 39 10 82 33 173 6
315 -87 453 -51 75 -32 87 23 15z m-81 -44 c73 -92 110 -199 110 -319 0 -71
-15 -156 -31 -173 -5 -6 -9 -18 -9 -28 0 -10 -5 -18 -11 -18 -7 0 -9 11 -4 33
4 17 9 85 12 150 5 126 -10 199 -59 284 -12 21 -32 57 -46 81 -33 58 -12 53
38 -10z m-1803 10 c-3 -8 -6 -5 -6 6 -1 11 2 17 5 13 3 -3 4 -12 1 -19z m-10
-45 c-32 -163 -37 -202 -37 -333 0 -135 7 -194 38 -310 23 -83 90 -231 133
-291 10 -15 19 -31 19 -36 0 -5 8 -18 18 -29 25 -27 52 -67 52 -77 0 -16 -64
56 -112 123 -86 123 -134 228 -169 369 -26 107 -28 319 -3 426 9 39 18 82 21
98 3 15 9 30 14 33 5 3 9 16 9 30 0 13 5 24 11 24 7 0 9 -11 6 -27z m-86 -56
c-29 -113 -36 -174 -36 -317 0 -90 6 -180 13 -215 33 -151 98 -302 189 -437
59 -88 64 -112 11 -53 -160 180 -258 434 -258 666 0 122 32 292 77 409 11 31
15 -11 4 -53z m255 -74 c-58 -234 -40 -444 52 -613 38 -69 85 -144 96 -152 6
-4 7 -10 3 -14 -24 -24 -152 171 -192 291 -14 43 -35 172 -35 216 0 77 31 230
52 254 4 5 8 17 8 27 0 10 5 18 11 18 7 0 9 -10 5 -27z m-79 -15 c-3 -8 -6 -5
-6 6 -1 11 2 17 5 13 3 -3 4 -12 1 -19z m-7 -25 c0 -5 -7 -43 -15 -86 -22
-113 -19 -266 5 -362 21 -84 76 -200 134 -287 46 -68 46 -81 0 -32 -177 191
-236 461 -159 722 9 28 20 52 25 52 6 0 10 -3 10 -7z m276 -70 c-16 -69 -25
-183 -20 -238 10 -90 69 -235 122 -298 8 -9 12 -20 8 -25 -12 -10 -82 75 -111
134 -14 28 -32 73 -40 100 -18 59 -20 213 -3 263 21 65 33 91 42 91 4 0 5 -12
2 -27z m-93 -75 c-13 -70 -10 -248 6 -298 14 -43 77 -169 108 -217 24 -36 7
-27 -37 20 -113 118 -156 317 -105 485 19 64 41 71 28 10z m2104 -620 c-3 -7
-5 -2 -5 12 0 14 2 19 5 13 2 -7 2 -19 0 -25z"/>
<path d="M4609 4828 c-43 -24 -79 -83 -79 -128 0 -46 36 -104 80 -129 21 -11
52 -21 70 -21 18 0 49 10 70 21 44 25 80 83 80 129 0 74 -78 150 -151 150 -19
0 -50 -10 -70 -22z"/>
</g>
</svg>
